<?xml version="1.0"?>
<svg xmlns="http://www.w3.org/2000/svg" xmlns:xlink="http://www.w3.org/1999/xlink" xmlns:svgjs="http://svgjs.com/svgjs" version="1.1" width="512" height="512" x="0" y="0" viewBox="0 0 24 24" style="enable-background:new 0 0 512 512" xml:space="preserve" class=""><g><path d="m12 2a10 10 0 1 0 4.924 18.7l3.76 1.253a.987.987 0 0 0 .316.047 1 1 0 0 0 .948-1.316l-1.248-3.76a9.988 9.988 0 0 0 -8.7-14.924zm6.653 15.12.766 2.3-2.3-.766a.991.991 0 0 0 -.851.1 8.02 8.02 0 1 1 2.488-2.488 1 1 0 0 0 -.103.854z" fill="#ffffff" data-original="#000000" class=""/></g></svg>
