<?xml version="1.0"?>
<svg xmlns="http://www.w3.org/2000/svg" xmlns:xlink="http://www.w3.org/1999/xlink" xmlns:svgjs="http://svgjs.com/svgjs" version="1.1" width="512" height="512" x="0" y="0" viewBox="0 0 512 512" style="enable-background:new 0 0 512 512" xml:space="preserve" class=""><rect width="512" height="512" rx="20" ry="20" fill="#41436a" shape="rounded"/><g transform="matrix(0.7,0,0,0.7,76.79980430603035,76.81499748229982)"><path d="m475.2 206.5c-10.3-48.6-37.7-92.9-77.2-124.7-39.9-32.1-90.4-49.8-142.2-49.8-60.9 0-117.8 23.5-160.3 66.1-41.1 41.2-63.7 95.7-63.5 153.2 0 42.4 12.3 83.4 35.6 118.8l.5.8c.6.7 1.1 1.5 1.6 2.3 1.1 1.9 1.6 3.3 1.9 4.1l-19.2 69.3c-.6 2.1-1 4.3-1.2 6.5v1.3c0 6.8 2.6 13.3 7.4 18.1 4.8 4.9 11.2 7.5 18.1 7.6h.9l.9-.1c3-.3 6-1.1 8.8-2.2l67.5-24.3.8-.3c1.8-.8 3.8-1.2 5.8-1.2 1.9 0 3.7.3 5.4 1 .6.3 16 6.2 31.8 10.6 12.9 3.6 39.7 9 60.8 9 59.7 0 115.4-23.1 156.8-65.1 41.1-41.6 63.8-96.9 63.8-155.9 0-15.2-1.6-30.3-4.8-45.1zm-215.8 233.9c-15.8 0-38.7-4-52.2-7.8-14.4-4-28.4-9.4-29-9.6-5.4-2.1-11.1-3.1-16.8-3.1-6.2 0-12.2 1.2-17.9 3.5l-57.1 20.6 16.5-59.7v-.1c2.1-7.8.3-16.9-5.5-27l-.2-.3c-1-1.6-2-3.2-3.1-4.7-19.7-30.1-30.1-64.9-30.1-100.9-.2-49.1 19.1-95.4 54.1-130.6 36.5-36.6 85.4-56.7 137.7-56.7 90.7 0 169.8 62.7 188.1 149.2 2.7 12.6 4.1 25.4 4.1 38.3 0 104.2-84.6 188.9-188.6 188.9z" fill="#ffffff" data-original="#000000" class=""/></g></svg>
